<svg width="52" height="52" viewBox="0 0 52 52" fill="none" xmlns="http://www.w3.org/2000/svg">
<path d="M26 1.72656C39.4062 1.72656 50.2531 12.5734 50.2531 25.9594C50.2531 39.3453 39.4062 50.2125 26 50.2125C12.5937 50.2125 1.74683 39.3656 1.74683 25.9797C1.74683 12.5938 12.5937 1.72656 26 1.72656Z" fill="#E74D89"/>
<path d="M26 51.9391C11.6594 51.9391 0 40.3 0 25.9797C0 11.6391 11.6594 0 26 0C40.3406 0 52 11.6391 52 25.9594C52 40.2797 40.3406 51.9391 26 51.9391ZM47.9172 29.5141C47.1656 29.2703 41.0516 27.4625 34.0844 28.5594C36.9891 36.5219 38.1672 43.0219 38.3906 44.3625C43.3875 41.0109 46.9422 35.6891 47.9172 29.5141ZM34.6734 46.4141C34.3484 44.4641 33.0484 37.6797 29.9406 29.5953C29.9 29.6156 29.8391 29.6359 29.7984 29.6359C17.2656 34.0031 12.7766 42.6766 12.3703 43.4891C16.1281 46.4141 20.8609 48.1609 26 48.1609C29.0672 48.1813 32.0125 47.5516 34.6734 46.4141ZM9.50625 40.8281C10.0141 39.975 16.1078 29.9 27.5641 26.1828C27.8484 26.0812 28.1531 26 28.4375 25.9187C27.8891 24.6594 27.2797 23.4 26.6297 22.1609C15.5391 25.4719 4.77344 25.3297 3.79844 25.3094C3.79844 25.5328 3.77813 25.7563 3.77813 25.9797C3.79844 31.6875 5.95156 36.8875 9.50625 40.8281ZM4.26562 21.45C5.26094 21.4703 14.4016 21.5109 24.8016 18.7484C21.125 12.2078 17.1437 6.72344 16.575 5.93125C10.3391 8.85625 5.70781 14.5844 4.26562 21.45ZM20.8 4.42812C21.4094 5.24062 25.4516 10.725 29.0875 17.4078C36.9891 14.4422 40.3203 9.97344 40.7266 9.40469C36.8063 5.93125 31.6469 3.81875 26 3.81875C24.2125 3.81875 22.4656 4.04219 20.8 4.42812ZM43.1844 11.9641C42.7172 12.5938 39 17.3672 30.7938 20.7188C31.3016 21.775 31.8094 22.8516 32.2766 23.9281C32.4391 24.3141 32.6016 24.7 32.7641 25.0656C40.1578 24.1313 47.4906 25.6344 48.2219 25.7766C48.1609 20.5562 46.2922 15.7422 43.1844 11.9641Z" fill="#B2215A"/>
</svg>
