<svg width="55" height="55" viewBox="0 0 55 55" fill="none" xmlns="http://www.w3.org/2000/svg">
<path d="M27.4785 4.09818C14.1958 4.09281 3.4375 14.8457 3.4375 28.1177C3.4375 38.6128 10.1675 47.5342 19.54 50.8106C20.8022 51.1275 20.6089 50.2305 20.6089 49.6182V45.4556C13.3203 46.3096 13.0249 41.4864 12.5361 40.6807C11.5479 38.9942 9.21143 38.5645 9.90967 37.7588C11.5693 36.9048 13.2612 37.9737 15.2217 40.8687C16.6396 42.9688 19.4058 42.6143 20.8076 42.2652C21.1138 41.003 21.769 39.875 22.6714 38.9995C15.1196 37.646 11.9722 33.0376 11.9722 27.5591C11.9722 24.9004 12.8477 22.4566 14.5664 20.4854C13.4707 17.2359 14.6685 14.4536 14.8296 14.0401C17.9502 13.7608 21.1943 16.2744 21.4468 16.4732C23.2192 15.9951 25.2441 15.7427 27.5107 15.7427C29.7881 15.7427 31.8184 16.0059 33.6069 16.4893C34.2139 16.0274 37.2217 13.8682 40.1221 14.1314C40.2778 14.545 41.4487 17.2627 40.4175 20.4693C42.1577 22.4458 43.0439 24.9112 43.0439 27.5752C43.0439 33.0645 39.875 37.6783 32.3018 39.0103C32.9504 39.6482 33.4655 40.409 33.8168 41.2482C34.1682 42.0874 34.3488 42.9882 34.3481 43.898V49.9405C34.3911 50.4239 34.3481 50.9019 35.1538 50.9019C44.666 47.6953 51.5142 38.7095 51.5142 28.1231C51.5142 14.8457 40.7505 4.09818 27.4785 4.09818Z" fill="#BBBBBB"/>
</svg>
