<svg width="63" height="48" viewBox="0 0 63 48" fill="none" xmlns="http://www.w3.org/2000/svg">
<path d="M58.7756 47.8998H3.9754C1.85062 47.8998 0.0615235 46.157 0.0615235 43.9643V4.16042C0.0612774 2.02392 1.79452 0.224915 3.9754 0.224915H58.7756C60.9003 0.224915 62.6899 1.96776 62.6899 4.16042V43.9643C62.6899 46.157 60.9564 47.8998 58.7756 47.8998Z" fill="#E3E3E3"/>
<path opacity="0.1" d="M7.88977 47.8998L31.3196 28.9534L31.4875 27.9415L7.33065 10.4571L7.27454 47.0566L7.88977 47.8998Z" fill="#231F20"/>
<path d="M3.9754 47.8998C1.79452 47.8998 0.0612793 46.157 0.0612793 43.9643V4.10401C0.0612793 1.91159 1.79452 1.51794 3.9754 1.51794C6.15628 1.51794 7.88977 1.96776 7.88977 4.10401V47.8998H3.9754Z" fill="#D54B3D"/>
<path d="M3.9754 2.08009C6.77127 2.08009 7.33064 2.92355 7.33064 4.10401V47.3377H3.9754C2.13019 47.3377 0.620402 45.8197 0.620402 43.9643V4.10401C0.620402 2.86714 1.17953 2.08009 3.9754 2.08009ZM3.9754 1.51794C1.79452 1.51794 0.0615234 1.96776 0.0615234 4.10401V43.9645C0.0615234 46.1572 1.79476 47.9 3.97564 47.9H7.88977V4.10401C7.88977 1.91159 6.15628 1.51794 3.9754 1.51794Z" fill="#D72B27"/>
<path d="M58.7756 47.8998H54.8612V3.99168C54.8612 1.79902 56.5947 1.51794 58.7756 1.51794C60.9565 1.51794 62.6899 1.79902 62.6899 3.99168V44.0207C62.6899 46.157 60.9565 47.8998 58.7756 47.8998Z" fill="#D54B3D"/>
<path d="M58.7756 2.08009C61.2919 2.08009 62.1306 2.58607 62.1306 3.99168V44.0207C62.1306 45.8759 60.6208 47.3938 58.7756 47.3938H55.4203V3.99168C55.4203 2.5299 56.2593 2.08009 58.7756 2.08009ZM58.7756 1.51794C56.5947 1.51794 54.8612 1.79902 54.8612 3.99168V47.9562H58.7756C60.9565 47.9562 62.6899 46.2131 62.6899 44.0207V3.99168C62.6899 1.79902 60.9565 1.51794 58.7756 1.51794Z" fill="#D72B27"/>
<path d="M42.0001 47.8998L0.388855 5.73898L2.57761 6.63391L31.5433 27.6042L62.6899 4.64166V44.0207C62.6899 46.157 60.9565 47.8998 58.7756 47.8998H42.0001Z" fill="url(#paint0_linear)"/>
<path d="M31.3196 28.9534L1.73864 7.36478C0.00515562 6.07175 -0.498106 3.59802 0.78798 1.85517C2.07456 0.112324 4.59062 -0.281078 6.37997 1.01195L31.3757 19.2836L56.5385 0.786799C58.272 -0.506232 60.7325 -0.112583 62.0186 1.68643C63.3046 3.42927 62.9134 5.903 61.1238 7.19604L31.3194 28.9531L31.3196 28.9534Z" fill="#D54B3D"/>
<path d="M58.7756 0.562144C59.838 0.562144 60.8445 1.06812 61.5156 1.96751C62.578 3.48569 62.2425 5.56577 60.7886 6.69031L31.3196 28.2789L2.07434 6.91522C0.564552 5.79068 0.173017 3.65419 1.2354 2.19266C1.85064 1.3492 2.91302 0.787299 4.03128 0.787299C4.75824 0.787299 5.4852 1.01196 6.04432 1.46177L30.9842 19.677L31.3196 19.9022L31.6551 19.677L56.7625 1.1807C57.3778 0.787299 58.0486 0.562144 58.7756 0.562144ZM58.7756 0C57.9927 0 57.1538 0.224907 56.483 0.730887L31.3196 19.2272L6.32388 0.955794C5.65328 0.449814 4.81459 0.224907 3.97566 0.224907C2.74544 0.224907 1.51521 0.787052 0.732388 1.85542C-0.497835 3.59802 0.005427 6.07175 1.73891 7.36478L31.3199 29.0098L61.0682 7.19629C62.8017 5.90326 63.1932 3.48569 61.963 1.68668C61.1802 0.562144 60.0058 0 58.7756 0Z" fill="#D72B27"/>
<defs>
<linearGradient id="paint0_linear" x1="0.391347" y1="26.2699" x2="62.7099" y2="26.2699" gradientUnits="userSpaceOnUse">
<stop stop-opacity="0.1"/>
<stop offset="1" stop-opacity="0.2"/>
</linearGradient>
</defs>
</svg>
