<svg width="64" height="45" viewBox="0 0 64 45" fill="none" xmlns="http://www.w3.org/2000/svg">
<path d="M25.4 30.8L42.7 21.85L25.4 12.825V30.8Z" fill="white"/>
<path opacity="0.12" d="M25.4 12.825L40.575 22.95L42.7 21.85L25.4 12.825Z" fill="#420000"/>
<path d="M63.3252 9.7C63.3252 9.7 62.7005 5.3 60.7762 3.35C58.3522 0.8 55.6283 0.8 54.3537 0.65C45.4325 0 32.0125 0 32.0125 0H31.9875C31.9875 0 18.5677 0 9.59625 0.65C8.34675 0.8 5.62275 0.8 3.17375 3.35C1.2745 5.3 0.64975 9.7 0.64975 9.7C0.64975 9.7 0 14.9 0 20.075V24.925C0 30.1 0.64975 35.275 0.64975 35.275C0.64975 35.275 1.2745 39.675 3.19875 41.625C5.62275 44.175 8.8215 44.1 10.246 44.35C15.369 44.85 31.9875 45 31.9875 45C31.9875 45 45.4323 44.975 54.3787 44.325C55.6283 44.175 58.3522 44.175 60.8013 41.625C62.7255 39.675 63.3503 35.275 63.3503 35.275C63.3503 35.275 64 30.1 64 24.925V20.075C63.975 14.9 63.3252 9.7 63.3252 9.7ZM25.3902 30.8V12.825L42.6833 21.85L25.39 30.8H25.3902Z" fill="url(#paint0_linear)"/>
<defs>
<linearGradient id="paint0_linear" x1="31.9872" y1="0" x2="31.9872" y2="45.0135" gradientUnits="userSpaceOnUse">
<stop stop-color="#E52D27"/>
<stop offset="1" stop-color="#BF171D"/>
</linearGradient>
</defs>
</svg>
